name ./resultDataOpenSim/trcMotMarkerGrf/sub06/grf-05-06.mot
datacolumns 19
datarows 27
range 1.04000000 1.14400000
endheader

                time	     ground_force_vx	     ground_force_vy	     ground_force_vz	     ground_force_px	     ground_force_py	     ground_force_pz	   l_ground_force_vx	   l_ground_force_vy	   l_ground_force_vz	   l_ground_force_px	   l_ground_force_py	   l_ground_force_pz	     ground_torque_x	     ground_torque_y	     ground_torque_z	   l_ground_torque_x	   l_ground_torque_y	   l_ground_torque_z	
          1.04000000	          0.00000000	          0.00000000	          0.00000000	          0.00000000	          0.00000000	          0.00000000	         74.72836580	        625.35881280	         33.32222159	          0.05095713	         -0.10000000	         -0.03127757	          0.00000000	          0.00000000	          0.00000000	          0.00000000	         -2.04811416	          0.00000000	
          1.04400000	          0.00000000	          0.00000000	          0.00000000	          0.00000000	          0.00000000	          0.00000000	         80.74121978	        651.24448562	         34.56823457	          0.05139090	         -0.10000000	         -0.03096308	          0.00000000	          0.00000000	          0.00000000	          0.00000000	         -2.17236260	          0.00000000	
          1.04800000	          0.00000000	          0.00000000	          0.00000000	          0.00000000	          0.00000000	          0.00000000	         87.11532636	        676.62526859	         35.70414324	          0.05184937	         -0.10000000	         -0.03060080	          0.00000000	          0.00000000	          0.00000000	          0.00000000	         -2.31284667	          0.00000000	
          1.05200000	          0.00000000	          0.00000000	          0.00000000	          0.00000000	          0.00000000	          0.00000000	         93.80555467	        701.14562188	         36.69432401	          0.05232816	         -0.10000000	         -0.03020877	          0.00000000	          0.00000000	          0.00000000	          0.00000000	         -2.46659993	          0.00000000	
          1.05600000	          0.00000000	          0.00000000	          0.00000000	          0.00000000	          0.00000000	          0.00000000	        100.77468289	        724.43860631	         37.46233292	          0.05281820	         -0.10000000	         -0.02980801	          0.00000000	          0.00000000	          0.00000000	          0.00000000	         -2.62885509	          0.00000000	
          1.06000000	          0.00000000	          0.00000000	          0.00000000	          0.00000000	          0.00000000	          0.00000000	        107.99509212	        746.14747521	         37.94068214	          0.05331778	         -0.10000000	         -0.02941383	          0.00000000	          0.00000000	          0.00000000	          0.00000000	         -2.79325070	          0.00000000	
          1.06400000	          0.00000000	          0.00000000	          0.00000000	          0.00000000	          0.00000000	          0.00000000	        115.45707552	        765.96057231	         38.11981076	          0.05384516	         -0.10000000	         -0.02902368	          0.00000000	          0.00000000	          0.00000000	          0.00000000	         -2.95238073	          0.00000000	
          1.06800000	          0.00000000	          0.00000000	          0.00000000	          0.00000000	          0.00000000	          0.00000000	        123.16277645	        783.64210364	         38.05008773	          0.05443140	         -0.10000000	         -0.02862098	          0.00000000	          0.00000000	          0.00000000	          0.00000000	         -3.09864224	          0.00000000	
          1.07200000	          0.00000000	          0.00000000	          0.00000000	          0.00000000	          0.00000000	          0.00000000	        131.09728507	        798.99245813	         37.80428258	          0.05508739	         -0.10000000	         -0.02819496	          0.00000000	          0.00000000	          0.00000000	          0.00000000	         -3.22522811	          0.00000000	
          1.07600000	          0.00000000	          0.00000000	          0.00000000	          0.00000000	          0.00000000	          0.00000000	        139.21259937	        811.78173283	         37.43627319	          0.05580063	         -0.10000000	         -0.02774366	          0.00000000	          0.00000000	          0.00000000	          0.00000000	         -3.32705933	          0.00000000	
          1.08000000	          0.00000000	          0.00000000	          0.00000000	          0.00000000	          0.00000000	          0.00000000	        147.43260945	        821.76002665	         36.96187596	          0.05656376	         -0.10000000	         -0.02727025	          0.00000000	          0.00000000	          0.00000000	          0.00000000	         -3.40145947	          0.00000000	
          1.08400000	          0.00000000	          0.00000000	          0.00000000	          0.00000000	          0.00000000	          0.00000000	        155.65078336	        828.72789849	         36.36404535	          0.05736628	         -0.10000000	         -0.02679674	          0.00000000	          0.00000000	          0.00000000	          0.00000000	         -3.44842474	          0.00000000	
          1.08800000	          0.00000000	          0.00000000	          0.00000000	          0.00000000	          0.00000000	          0.00000000	        163.72524029	        832.58546086	         35.61249634	          0.05819669	         -0.10000000	         -0.02634952	          0.00000000	          0.00000000	          0.00000000	          0.00000000	         -3.47041088	          0.00000000	
          1.09200000	          0.00000000	          0.00000000	          0.00000000	          0.00000000	          0.00000000	          0.00000000	        171.49255243	        833.32055150	         34.68766334	          0.05903568	         -0.10000000	         -0.02593544	          0.00000000	          0.00000000	          0.00000000	          0.00000000	         -3.47162667	          0.00000000	
          1.09600000	          0.00000000	          0.00000000	          0.00000000	          0.00000000	          0.00000000	          0.00000000	        178.79617771	        830.95925529	         33.59319694	          0.05986637	         -0.10000000	         -0.02554825	          0.00000000	          0.00000000	          0.00000000	          0.00000000	         -3.45691966	          0.00000000	
          1.10000000	          0.00000000	          0.00000000	          0.00000000	          0.00000000	          0.00000000	          0.00000000	        185.51043505	        825.52431975	         32.34577543	          0.06068778	         -0.10000000	         -0.02516901	          0.00000000	          0.00000000	          0.00000000	          0.00000000	         -3.43047131	          0.00000000	
          1.10400000	          0.00000000	          0.00000000	          0.00000000	          0.00000000	          0.00000000	          0.00000000	        191.54126361	        817.00120760	         30.95647805	          0.06151650	         -0.10000000	         -0.02476063	          0.00000000	          0.00000000	          0.00000000	          0.00000000	         -3.39462359	          0.00000000	
          1.10800000	          0.00000000	          0.00000000	          0.00000000	          0.00000000	          0.00000000	          0.00000000	        196.80409242	        805.31755403	         29.41699915	          0.06236596	         -0.10000000	         -0.02430478	          0.00000000	          0.00000000	          0.00000000	          0.00000000	         -3.34914579	          0.00000000	
          1.11200000	          0.00000000	          0.00000000	          0.00000000	          0.00000000	          0.00000000	          0.00000000	        201.20129010	        790.36159188	         27.69053471	          0.06321815	         -0.10000000	         -0.02381613	          0.00000000	          0.00000000	          0.00000000	          0.00000000	         -3.29109346	          0.00000000	
          1.11600000	          0.00000000	          0.00000000	          0.00000000	          0.00000000	          0.00000000	          0.00000000	        204.61030761	        771.98288122	         25.72567285	          0.06403496	         -0.10000000	         -0.02332619	          0.00000000	          0.00000000	          0.00000000	          0.00000000	         -3.21525004	          0.00000000	
          1.12000000	          0.00000000	          0.00000000	          0.00000000	          0.00000000	          0.00000000	          0.00000000	        206.87258292	        749.94388096	         23.49696541	          0.06480461	         -0.10000000	         -0.02286404	          0.00000000	          0.00000000	          0.00000000	          0.00000000	         -3.11510828	          0.00000000	
          1.12400000	         -1.91226367	         24.61961274	          0.92145874	          0.72938917	          0.00000000	          0.09812074	        207.78159335	        723.91324915	         21.02584266	          0.06553390	         -0.10000000	         -0.02245242	          0.00000000	          0.46784044	          0.00000000	          0.00000000	         -2.98430499	          0.00000000	
          1.12800000	        -10.33427211	        149.86191372	          7.80593594	          0.73349218	          0.00000000	          0.09608227	        207.08560658	        693.53047928	         18.36935646	          0.06623580	         -0.10000000	         -0.02211181	          0.00000000	          0.44287941	          0.00000000	          0.00000000	         -2.81823247	          0.00000000	
          1.13200000	        -19.31581283	        261.73192139	         14.49439921	          0.73736520	          0.00000000	          0.09440210	        204.52169362	        658.49437387	         15.62557564	          0.06694606	         -0.10000000	         -0.02184891	          0.00000000	          0.37511836	          0.00000000	          0.00000000	         -2.61541181	          0.00000000	
          1.13600000	        -29.47589800	        350.63476973	         20.44150346	          0.74076505	          0.00000000	          0.09353076	        199.86864353	        618.66510977	         12.95341835	          0.06772543	         -0.10000000	         -0.02166601	          0.00000000	          0.24098400	          0.00000000	          0.00000000	         -2.37832444	          0.00000000	
          1.14000000	        -41.33153756	        414.38866010	         24.75291212	          0.74335090	          0.00000000	          0.09380358	        192.96279626	        574.16832165	         10.54618641	          0.06864582	         -0.10000000	         -0.02157309	          0.00000000	          0.03479983	          0.00000000	          0.00000000	         -2.11361703	          0.00000000	
          1.14400000	        -55.03178093	        457.49878978	         26.63706590	          0.74561595	          0.00000000	          0.09485452	        183.66001897	        525.49389571	          8.55577723	          0.06976463	         -0.10000000	         -0.02158223	          0.00000000	         -0.22627441	          0.00000000	          0.00000000	         -1.83165759	          0.00000000	
